# xmcd
#
# Track frame offsets:
#	150
#	11707
#	23420
#	34068
#	46203
#	57783
#	69694
#	81090
#	90757
#	100557
#	111115
#	122771
#	133480
#	146282
#	159016
#	168602
#	180313
#	192991
#	205747
#	216863
#	232214
#	242869
#	253185
#	266668
#	276693
#
# Disc length: 3817 seconds
#
# Revision: 1
# Processed by: cddbd v1.5.2PL0 Copyright (c) Steve Scherf et al.
# Submitted via: audiograbber 1.83.01
#
DISCID=600ee719
DTITLE=Various Artist - Hillbilly Hop- 50 Essential Hillbilly Classics CD 2
DYEAR=2011
DGENRE=Boogie 
TTITLE0=Jerry Irby and His Texas Rangers - Hillbilly Boogie
TTITLE1=Al Dexter - Diddy Wah Boogie
TTITLE2=Jack Guthrie - Okie Boogie
TTITLE3=The Delmore Brothers - Peach Tree Street Boogie
TTITLE4=Tennessee Ernie Ford - Shot Gun Boogie
TTITLE5=Wayne Raney - Catfish Baby
TTITLE6=Johnny Tyler - Freight Train Boogie
TTITLE7=Ramblin' Jimmie Dolan - Juke Box Boogie
TTITLE8=Jess Willard - Truck Driver's Boogie
TTITLE9=Gene O'Quinn - Boogie Woogie Fever
TTITLE10=Zeb Turner - Travellin' Boogie
TTITLE11=The Milo Twins - Downtown Boogie
TTITLE12=Johnny Bond and His Red River Valliey - Mean Mama Boogie
TTITLE13=Marie Travis - Louisiana Boogie
TTITLE14=The Milo Twins - Baby Buggie Boogie
TTITLE15=Al Dexter - Saturday Night Boogie
TTITLE16=Tillman Franks and His Rainbow Boys - Hot Rod Shotgun Boogie
TTITLE17=The Delmore Brothers - Pan American Boogie
TTITLE18=Tennessee Ernie Ford - Blackberry Boogie
TTITLE19=Arthur Smith's Hot Quintet - Guitar Boogie
TTITLE20=Mustard and Gravy - Be Bop Bogie
TTITLE21=Gene O'Quinn - Texas Boogie
TTITLE22=Merle Travis - Merle's Boogie Woogie
TTITLE23=Johnny Tyler - Old MacDonald Boogie
TTITLE24=Spade Cooley - The Rhumba Boogie
EXTD=
EXTT0=
EXTT1=
EXTT2=
EXTT3=
EXTT4=
EXTT5=
EXTT6=
EXTT7=
EXTT8=
EXTT9=
EXTT10=
EXTT11=
EXTT12=
EXTT13=
EXTT14=
EXTT15=
EXTT16=
EXTT17=
EXTT18=
EXTT19=
EXTT20=
EXTT21=
EXTT22=
EXTT23=
EXTT24=
PLAYORDER=
